<svg width="24" height="24" viewBox="0 0 24 24" xmlns="http://www.w3.org/2000/svg">
<path d="M10.5 12C11.1964 11.9999 11.8859 12.1384 12.5283 12.4074C13.1707 12.6764 13.7532 13.0705 14.2418 13.5668C14.7304 14.063 15.1153 14.6516 15.3743 15.2981C15.6332 15.9446 15.7609 16.6362 15.75 17.3325C15.7482 17.4478 15.7731 17.562 15.8226 17.6661C15.8721 17.7702 15.945 17.8615 16.0355 17.9329C16.1261 18.0043 16.2319 18.0539 16.3447 18.0777C16.4575 18.1016 16.5743 18.0991 16.686 18.0705C17.0186 17.9853 17.3663 17.9772 17.7025 18.0468C18.0387 18.1164 18.3546 18.2618 18.626 18.4721C18.8974 18.6823 19.1173 18.9518 19.2687 19.2599C19.4202 19.568 19.4993 19.9067 19.5 20.25C19.5 20.8467 19.2629 21.419 18.841 21.841C18.419 22.263 17.8467 22.5 17.25 22.5H4.49998C4.10114 22.4978 3.70674 22.416 3.33987 22.2595C2.973 22.103 2.64102 21.8749 2.36334 21.5886C2.08567 21.3023 1.86787 20.9635 1.7227 20.592C1.57753 20.2205 1.50789 19.8238 1.51787 19.425C1.52784 19.0263 1.61722 18.6336 1.78078 18.2698C1.94435 17.906 2.17881 17.5785 2.47045 17.3064C2.76209 17.0344 3.10506 16.8232 3.4793 16.6852C3.85354 16.5473 4.25152 16.4853 4.64998 16.503C4.82282 16.5119 4.99341 16.4608 5.13284 16.3582C5.27226 16.2557 5.37195 16.1081 5.41498 15.9405C5.70593 14.813 6.36329 13.8141 7.28373 13.1008C8.20417 12.3875 9.33552 12.0003 10.5 12ZM17.2095 16.5C17.0407 14.9792 16.3603 13.5609 15.2797 12.4776C14.1991 11.3942 12.7825 10.7102 11.2621 10.5376C9.74176 10.365 8.20786 10.714 6.91191 11.5275C5.61597 12.3411 4.63487 13.5708 4.12948 15.015C2.97139 15.1098 1.89486 15.6489 1.12523 16.5194C0.355598 17.3899 -0.0474667 18.5244 0.000406552 19.6854C0.0482799 20.8464 0.54338 21.9438 1.38207 22.7481C2.22076 23.5523 3.33802 24.0009 4.49998 24H17.25C18.2445 24 19.1984 23.6049 19.9016 22.9017C20.6049 22.1984 21 21.2446 21 20.25C21 19.2555 20.6049 18.3016 19.9016 17.5984C19.1984 16.8951 18.2445 16.5 17.25 16.5H17.2095Z"  fill="black"/>
<path d="M15.7501 2.25C15.7501 2.05109 15.6711 1.86032 15.5304 1.71967C15.3898 1.57902 15.199 1.5 15.0001 1.5C14.8012 1.5 14.6104 1.57902 14.4698 1.71967C14.3291 1.86032 14.2501 2.05109 14.2501 2.25V3.75C14.2501 3.94891 14.3291 4.13968 14.4698 4.28033C14.6104 4.42098 14.8012 4.5 15.0001 4.5C15.199 4.5 15.3898 4.42098 15.5304 4.28033C15.6711 4.13968 15.7501 3.94891 15.7501 3.75V2.25ZM21.3646 5.196C21.4362 5.12681 21.4934 5.04406 21.5327 4.95255C21.572 4.86105 21.5927 4.76264 21.5935 4.66305C21.5944 4.56347 21.5754 4.46471 21.5377 4.37253C21.5 4.28036 21.4443 4.19662 21.3739 4.1262C21.3035 4.05578 21.2197 4.00009 21.1275 3.96238C21.0354 3.92467 20.9366 3.9057 20.837 3.90656C20.7374 3.90743 20.639 3.92812 20.5475 3.96742C20.456 4.00673 20.3733 4.06387 20.3041 4.1355L19.2421 5.196C19.1013 5.33683 19.0221 5.52784 19.0221 5.727C19.0221 5.92616 19.1013 6.11717 19.2421 6.258C19.3829 6.39883 19.5739 6.47795 19.7731 6.47795C19.9722 6.47795 20.1633 6.39883 20.3041 6.258L21.3646 5.196ZM9.69608 4.1355C9.55463 3.99888 9.36518 3.92329 9.16853 3.92499C8.97188 3.9267 8.78377 4.00558 8.64472 4.14464C8.50566 4.28369 8.42679 4.4718 8.42508 4.66845C8.42337 4.8651 8.49896 5.05455 8.63558 5.196L9.69608 6.258C9.76581 6.32773 9.8486 6.38305 9.93971 6.42078C10.0308 6.45852 10.1285 6.47795 10.2271 6.47795C10.3257 6.47795 10.4233 6.45852 10.5145 6.42078C10.6056 6.38305 10.6884 6.32773 10.7581 6.258C10.8278 6.18827 10.8831 6.10548 10.9209 6.01438C10.9586 5.92327 10.978 5.82562 10.978 5.727C10.978 5.62838 10.9586 5.53073 10.9209 5.43963C10.8831 5.34852 10.8278 5.26573 10.7581 5.196L9.69608 4.1355ZM12.2971 9.1965C12.4835 8.81016 12.7506 8.46829 13.0804 8.19396C13.4102 7.91963 13.795 7.71921 14.2088 7.60622C14.6226 7.49324 15.0559 7.47031 15.4793 7.539C15.9027 7.60768 16.3065 7.76638 16.6634 8.00438C17.0203 8.24238 17.322 8.55415 17.5482 8.91866C17.7743 9.28317 17.9197 9.69194 17.9744 10.1174C18.0292 10.5429 17.992 10.9751 17.8655 11.385C17.739 11.7949 17.5261 12.1729 17.2411 12.4935C17.5396 12.915 17.7991 13.3665 18.0151 13.8405C18.5234 13.3812 18.9202 12.8119 19.1751 12.176C19.43 11.5401 19.5364 10.8544 19.4861 10.1711C19.4358 9.48784 19.2301 8.82509 18.8848 8.23338C18.5395 7.64166 18.0636 7.13661 17.4935 6.75672C16.9234 6.37683 16.274 6.13213 15.595 6.04128C14.9159 5.95043 14.2251 6.01583 13.5751 6.23249C12.9252 6.44915 12.3333 6.81136 11.8446 7.29149C11.3559 7.77162 10.9832 8.357 10.7551 9.003C11.2831 9.0195 11.7991 9.0855 12.2971 9.1965ZM19.0231 15.3075C19.9231 15.63 20.7106 16.1925 21.3061 16.9155C21.3877 16.8494 21.4546 16.7668 21.5023 16.6732C21.55 16.5796 21.5775 16.477 21.583 16.372C21.5886 16.2671 21.572 16.1622 21.5343 16.064C21.4967 15.9659 21.4389 15.8768 21.3646 15.8025L20.3041 14.742C20.1972 14.6344 20.0601 14.5618 19.9111 14.5337C19.7621 14.5056 19.608 14.5234 19.4693 14.5846C19.3306 14.6459 19.2136 14.7478 19.134 14.8768C19.0543 15.0059 19.0157 15.156 19.0231 15.3075ZM21.7501 9.75C21.5512 9.75 21.3604 9.82902 21.2198 9.96967C21.0791 10.1103 21.0001 10.3011 21.0001 10.5C21.0001 10.6989 21.0791 10.8897 21.2198 11.0303C21.3604 11.171 21.5512 11.25 21.7501 11.25H23.2501C23.449 11.25 23.6398 11.171 23.7804 11.0303C23.9211 10.8897 24.0001 10.6989 24.0001 10.5C24.0001 10.3011 23.9211 10.1103 23.7804 9.96967C23.6398 9.82902 23.449 9.75 23.2501 9.75H21.7501Z"  fill="black"/>
</svg>
