<svg width="24" height="24" viewBox="0 0 24 24" xmlns="http://www.w3.org/2000/svg">
<path d="M23.9999 11.25C24 11.9675 23.7943 12.6699 23.4072 13.274C23.0201 13.878 22.4678 14.3584 21.8159 14.658C21.5546 14.1995 21.226 13.7829 20.8409 13.422C21.417 13.2651 21.9071 12.8857 22.2034 12.3674C22.4998 11.8491 22.5781 11.2343 22.4212 10.6582C22.2642 10.0822 21.8849 9.59209 21.3666 9.29573C20.8483 8.99938 20.2334 8.92106 19.6574 9.078C19.5537 9.1061 19.4452 9.1116 19.3393 9.09414C19.2333 9.07668 19.1323 9.03665 19.0431 8.97678C18.9539 8.9169 18.8787 8.83857 18.8224 8.74709C18.7661 8.6556 18.7301 8.55309 18.7169 8.4465C18.6108 7.58749 18.2593 6.77729 17.7044 6.11303C17.1495 5.44877 16.4148 4.95863 15.5884 4.70136C14.762 4.4441 13.8789 4.43062 13.045 4.66255C12.2111 4.89448 11.4618 5.36198 10.8869 6.009C10.246 5.97958 9.60374 6.02387 8.9729 6.141C9.54813 5.08172 10.4289 4.22014 11.5007 3.66843C12.5724 3.11671 13.7854 2.90042 14.9817 3.0477C16.1781 3.19498 17.3024 3.69901 18.2083 4.49418C19.1142 5.28935 19.7598 6.33883 20.0609 7.506C20.5685 7.48038 21.0761 7.55822 21.5527 7.7348C22.0293 7.91137 22.465 8.18299 22.8334 8.53316C23.2018 8.88332 23.4952 9.30472 23.6957 9.77176C23.8962 10.2388 23.9997 10.7417 23.9999 11.25Z" fill="black" />
<path d="M10.5 7.5C12.1606 7.49968 13.763 8.11149 15.0008 9.21842C16.2386 10.3253 17.025 11.8497 17.2095 13.5H17.25C18.2445 13.5 19.1984 13.8951 19.9016 14.5983C20.6049 15.3016 21 16.2554 21 17.25C21 18.2446 20.6049 19.1984 19.9016 19.9017C19.1984 20.6049 18.2445 21 17.25 21H4.49998C3.33802 21.0009 2.22076 20.5523 1.38207 19.748C0.54338 18.9438 0.0482799 17.8464 0.000406552 16.6854C-0.0474667 15.5244 0.355598 14.3899 1.12523 13.5194C1.89486 12.6489 2.97139 12.1098 4.12948 12.015C4.59302 10.6954 5.45488 9.5522 6.59603 8.74343C7.73718 7.93466 9.1013 7.50018 10.5 7.5ZM15.75 14.25C15.7509 12.9713 15.285 11.7362 14.4399 10.7766C13.5948 9.81693 12.4285 9.19873 11.1599 9.038C9.89134 8.87726 8.60771 9.18504 7.54995 9.90357C6.4922 10.6221 5.73305 11.702 5.41498 12.9405C5.37195 13.1081 5.27226 13.2557 5.13284 13.3582C4.99341 13.4608 4.82282 13.5119 4.64998 13.503C4.25152 13.4853 3.85354 13.5473 3.4793 13.6852C3.10506 13.8232 2.76209 14.0344 2.47045 14.3064C2.17881 14.5785 1.94435 14.906 1.78078 15.2698C1.61722 15.6336 1.52784 16.0263 1.51787 16.425C1.50789 16.8238 1.57753 17.2205 1.7227 17.592C1.86787 17.9635 2.08567 18.3023 2.36334 18.5886C2.64102 18.8749 2.973 19.103 3.33987 19.2595C3.70674 19.416 4.10114 19.4977 4.49998 19.5H17.25C17.569 19.4993 17.8842 19.4307 18.1747 19.2988C18.4653 19.167 18.7244 18.9748 18.935 18.7352C19.1456 18.4955 19.3028 18.2138 19.3962 17.9088C19.4896 17.6037 19.5171 17.2823 19.4768 16.9658C19.4365 16.6493 19.3293 16.345 19.1625 16.0731C18.9956 15.8012 18.7728 15.5679 18.5089 15.3887C18.245 15.2094 17.9459 15.0884 17.6317 15.0335C17.3174 14.9787 16.995 14.9913 16.686 15.0705C16.5743 15.0991 16.4575 15.1016 16.3447 15.0777C16.2319 15.0539 16.1261 15.0043 16.0355 14.9329C15.945 14.8615 15.8721 14.7702 15.8226 14.6661C15.7731 14.5619 15.7482 14.4478 15.75 14.3325V14.25Z" fill="black" />
</svg>
