<svg width="24" height="24" viewBox="0 0 24 24" xmlns="http://www.w3.org/2000/svg">
<path d="M12.75 5.99999C11.4876 5.99982 10.2573 6.39762 9.23403 7.13682C8.21073 7.87603 7.4465 8.91901 7.05 10.1175C7.02205 10.2144 6.97483 10.3047 6.91117 10.383C6.84751 10.4612 6.76871 10.5258 6.6795 10.5729C6.59029 10.62 6.4925 10.6486 6.39197 10.6571C6.29144 10.6655 6.19025 10.6535 6.09445 10.6219C5.99865 10.5903 5.9102 10.5397 5.83441 10.4732C5.75862 10.4066 5.69704 10.3254 5.65335 10.2345C5.60966 10.1436 5.58476 10.0447 5.58015 9.94397C5.57554 9.8432 5.5913 9.74253 5.6265 9.64799C6.14716 8.0757 7.17343 6.71986 8.54531 5.79188C9.91718 4.8639 11.5576 4.41593 13.2107 4.51782C14.8638 4.6197 16.4368 5.26572 17.6843 6.35514C18.9319 7.44456 19.7839 8.91616 20.1075 10.5405C21.2389 10.6933 22.2699 11.2704 22.9917 12.155C23.7135 13.0395 24.0721 14.1654 23.9948 15.3044C23.9176 16.4435 23.4103 17.5106 22.5757 18.2896C21.7411 19.0686 20.6417 19.5013 19.5 19.5H0.75C0.551088 19.5 0.360322 19.421 0.21967 19.2803C0.0790176 19.1397 0 18.9489 0 18.75C0 18.5511 0.0790176 18.3603 0.21967 18.2197C0.360322 18.079 0.551088 18 0.75 18H19.5C20.2956 18.0002 21.0588 17.6843 21.6215 17.1218C22.1843 16.5594 22.5006 15.7964 22.5007 15.0007C22.5009 14.2051 22.1851 13.442 21.6226 12.8792C21.0601 12.3165 20.2971 12.0002 19.5015 12H19.4625C19.2771 12.0011 19.0978 11.9335 18.9593 11.8103C18.8208 11.687 18.7329 11.5168 18.7125 11.3325C18.5483 9.86598 17.8495 8.51139 16.7495 7.52766C15.6496 6.54393 14.2257 6.00005 12.75 5.99999ZM0 12.75C0 12.5511 0.0790176 12.3603 0.21967 12.2197C0.360322 12.079 0.551088 12 0.75 12H11.25C11.4489 12 11.6397 12.079 11.7803 12.2197C11.921 12.3603 12 12.5511 12 12.75C12 12.9489 11.921 13.1397 11.7803 13.2803C11.6397 13.421 11.4489 13.5 11.25 13.5H0.75C0.551088 13.5 0.360322 13.421 0.21967 13.2803C0.0790176 13.1397 0 12.9489 0 12.75ZM0 15.75C0 15.5511 0.0790176 15.3603 0.21967 15.2197C0.360322 15.079 0.551088 15 0.75 15H14.25C14.4489 15 14.6397 15.079 14.7803 15.2197C14.921 15.3603 15 15.5511 15 15.75C15 15.9489 14.921 16.1397 14.7803 16.2803C14.6397 16.421 14.4489 16.5 14.25 16.5H0.75C0.551088 16.5 0.360322 16.421 0.21967 16.2803C0.0790176 16.1397 0 15.9489 0 15.75Z" fill="black" />
</svg>
