<svg width="24" height="24" viewBox="0 0 24 24" xmlns="http://www.w3.org/2000/svg">
<path d="M6.23701 18.0375C6.33051 18.0687 6.41694 18.118 6.49138 18.1826C6.56581 18.2472 6.62678 18.3258 6.67081 18.414C6.71483 18.5022 6.74104 18.5982 6.74793 18.6965C6.75483 18.7948 6.74228 18.8935 6.71101 18.987L5.96101 21.237C5.89272 21.4186 5.75675 21.5666 5.58163 21.6501C5.40651 21.7335 5.20587 21.7459 5.02184 21.6845C4.83781 21.6232 4.6847 21.4929 4.59467 21.3211C4.50464 21.1493 4.48469 20.9492 4.53901 20.763L5.28901 18.513C5.35168 18.3242 5.48676 18.1681 5.66454 18.0789C5.84232 17.9898 6.04824 17.9749 6.23701 18.0375ZM10.737 18.0375C10.8305 18.0687 10.9169 18.118 10.9914 18.1826C11.0658 18.2472 11.1268 18.3258 11.1708 18.414C11.2148 18.5022 11.241 18.5982 11.2479 18.6965C11.2548 18.7948 11.2423 18.8935 11.211 18.987L9.71101 23.487C9.64272 23.6686 9.50675 23.8166 9.33163 23.9001C9.15651 23.9835 8.95586 23.9959 8.77184 23.9345C8.58781 23.8732 8.4347 23.7429 8.34467 23.5711C8.25464 23.3993 8.23469 23.1992 8.28901 23.013L9.78901 18.513C9.85168 18.3242 9.98676 18.1681 10.1645 18.0789C10.3423 17.9898 10.5482 17.9749 10.737 18.0375ZM15.237 18.0375C15.3305 18.0687 15.4169 18.118 15.4914 18.1826C15.5658 18.2472 15.6268 18.3258 15.6708 18.414C15.7148 18.5022 15.741 18.5982 15.7479 18.6965C15.7548 18.7948 15.7423 18.8935 15.711 18.987L14.961 21.237C14.8927 21.4186 14.7567 21.5666 14.5816 21.6501C14.4065 21.7335 14.2059 21.7459 14.0218 21.6845C13.8378 21.6232 13.6847 21.4929 13.5947 21.3211C13.5046 21.1493 13.4847 20.9492 13.539 20.763L14.289 18.513C14.3517 18.3242 14.4868 18.1681 14.6645 18.0789C14.8423 17.9898 15.0482 17.9749 15.237 18.0375ZM19.737 18.0375C19.8305 18.0687 19.9169 18.118 19.9914 18.1826C20.0658 18.2472 20.1268 18.3258 20.1708 18.414C20.2148 18.5022 20.241 18.5982 20.2479 18.6965C20.2548 18.7948 20.2423 18.8935 20.211 18.987L18.711 23.487C18.6828 23.5839 18.6353 23.674 18.5714 23.7521C18.5074 23.8301 18.4284 23.8945 18.3391 23.9413C18.2497 23.9882 18.1518 24.0165 18.0513 24.0246C17.9507 24.0327 17.8495 24.0204 17.7538 23.9885C17.6581 23.9566 17.5698 23.9057 17.4943 23.8389C17.4187 23.7721 17.3573 23.6907 17.3139 23.5996C17.2705 23.5086 17.246 23.4097 17.2417 23.3089C17.2374 23.2081 17.2535 23.1074 17.289 23.013L18.789 18.513C18.8517 18.3242 18.9868 18.1681 19.1645 18.0789C19.3423 17.9898 19.5482 17.9749 19.737 18.0375ZM20.1075 7.54051C19.796 5.97025 18.9903 4.54082 17.8083 3.46122C16.6263 2.38163 15.1299 1.70848 13.5379 1.54022C11.9459 1.37195 10.3418 1.71739 8.9602 2.52602C7.57859 3.33465 6.49189 4.56407 5.85901 6.03451C5.14926 5.95274 4.4303 6.0167 3.74613 6.22247C3.06197 6.42823 2.427 6.77147 1.8801 7.23117C1.3332 7.69087 0.885887 8.25736 0.565538 8.89595C0.245189 9.53454 0.0585491 10.2318 0.0170454 10.945C-0.0244584 11.6583 0.0800474 12.3725 0.324164 13.0439C0.568281 13.7153 0.946872 14.3299 1.43676 14.8499C1.92664 15.3699 2.51752 15.7845 3.1732 16.0682C3.82888 16.352 4.53557 16.4989 5.25001 16.5H19.5C20.6417 16.5013 21.7412 16.0686 22.5757 15.2896C23.4103 14.5106 23.9176 13.4435 23.9948 12.3044C24.0721 11.1654 23.7135 10.0396 22.9917 9.15501C22.2699 8.27046 21.2389 7.69333 20.1075 7.54051ZM12.75 3.00001C14.2259 2.9997 15.6502 3.54341 16.7505 4.52718C17.8507 5.51094 18.5498 6.86573 18.714 8.33251C18.7344 8.5168 18.8223 8.687 18.9608 8.81027C19.0993 8.93354 19.2786 9.00113 19.464 9.00001H19.5C20.2957 9.00001 21.0587 9.31608 21.6213 9.87869C22.1839 10.4413 22.5 11.2044 22.5 12C22.5 12.7957 22.1839 13.5587 21.6213 14.1213C21.0587 14.6839 20.2957 15 19.5 15H5.25001C4.71912 14.9997 4.19433 14.8868 3.71037 14.6685C3.22641 14.4503 2.7943 14.1318 2.44263 13.7341C2.09096 13.3364 1.82774 12.8685 1.67038 12.3615C1.51303 11.8545 1.46512 11.3198 1.52984 10.7929C1.59455 10.2659 1.77042 9.75876 2.04579 9.30488C2.32116 8.85099 2.68977 8.46074 3.12723 8.15996C3.56469 7.85917 4.06103 7.6547 4.58342 7.56007C5.1058 7.46543 5.64233 7.4828 6.15751 7.61101C6.3413 7.65685 6.53563 7.63145 6.70147 7.5399C6.8673 7.44836 6.99235 7.29746 7.05151 7.11751C7.44793 5.91927 8.21193 4.87646 9.23493 4.13728C10.2579 3.3981 11.4879 3.00015 12.75 3.00001Z"fill="green" />
</svg>
