<svg width="24" height="24" viewBox="0 0 24 24" xmlns="http://www.w3.org/2000/svg">
<path d="M6.26401 16.548C6.44983 16.618 6.60029 16.7589 6.6824 16.9397C6.76451 17.1205 6.77156 17.3265 6.70201 17.5125L4.45201 23.5125C4.42025 23.6082 4.3695 23.6966 4.30282 23.7722C4.23613 23.8479 4.15487 23.9093 4.06389 23.9529C3.97291 23.9964 3.87409 24.0211 3.77333 24.0256C3.67257 24.0301 3.57195 24.0141 3.47748 23.9788C3.38301 23.9435 3.29664 23.8895 3.22353 23.82C3.15041 23.7505 3.09207 23.667 3.05197 23.5745C3.01188 23.4819 2.99086 23.3822 2.99018 23.2814C2.9895 23.1805 3.00917 23.0806 3.04801 22.9875L5.29801 16.9875C5.33253 16.8952 5.38491 16.8106 5.45216 16.7385C5.5194 16.6664 5.60019 16.6083 5.68991 16.5675C5.77962 16.5267 5.87651 16.504 5.97501 16.5006C6.07352 16.4973 6.17172 16.5134 6.26401 16.548ZM10.764 16.548C10.9498 16.618 11.1003 16.7589 11.1824 16.9397C11.2645 17.1205 11.2716 17.3265 11.202 17.5125L8.95201 23.5125C8.92025 23.6082 8.8695 23.6966 8.80282 23.7722C8.73613 23.8479 8.65487 23.9093 8.56389 23.9529C8.47291 23.9964 8.37409 24.0211 8.27333 24.0256C8.17257 24.0301 8.07195 24.0141 7.97748 23.9788C7.88301 23.9435 7.79664 23.8895 7.72353 23.82C7.65041 23.7505 7.59207 23.667 7.55197 23.5745C7.51188 23.4819 7.49086 23.3822 7.49018 23.2814C7.4895 23.1805 7.50917 23.0806 7.54801 22.9875L9.79801 16.9875C9.83253 16.8952 9.88491 16.8106 9.95216 16.7385C10.0194 16.6664 10.1002 16.6083 10.1899 16.5675C10.2796 16.5267 10.3765 16.504 10.475 16.5006C10.5735 16.4973 10.6717 16.5134 10.764 16.548ZM15.264 16.548C15.4498 16.618 15.6003 16.7589 15.6824 16.9397C15.7645 17.1205 15.7716 17.3265 15.702 17.5125L13.452 23.5125C13.4202 23.6082 13.3695 23.6966 13.3028 23.7722C13.2361 23.8479 13.1549 23.9093 13.0639 23.9529C12.9729 23.9964 12.8741 24.0211 12.7733 24.0256C12.6726 24.0301 12.5719 24.0141 12.4775 23.9788C12.383 23.9435 12.2966 23.8895 12.2235 23.82C12.1504 23.7505 12.0921 23.667 12.052 23.5745C12.0119 23.4819 11.9909 23.3822 11.9902 23.2814C11.9895 23.1805 12.0092 23.0806 12.048 22.9875L14.298 16.9875C14.3325 16.8952 14.3849 16.8106 14.4522 16.7385C14.5194 16.6664 14.6002 16.6083 14.6899 16.5675C14.7796 16.5267 14.8765 16.504 14.975 16.5006C15.0735 16.4973 15.1717 16.5134 15.264 16.548ZM19.764 16.548C19.9498 16.618 20.1003 16.7589 20.1824 16.9397C20.2645 17.1205 20.2716 17.3265 20.202 17.5125L17.952 23.5125C17.8773 23.6916 17.7361 23.8347 17.558 23.9119C17.3799 23.989 17.1789 23.9941 16.9972 23.9262C16.8154 23.8582 16.6671 23.7224 16.5833 23.5474C16.4996 23.3724 16.4869 23.1717 16.548 22.9875L18.798 16.9875C18.8325 16.8952 18.8849 16.8106 18.9522 16.7385C19.0194 16.6664 19.1002 16.6083 19.1899 16.5675C19.2796 16.5267 19.3765 16.504 19.475 16.5006C19.5735 16.4973 19.6717 16.5134 19.764 16.548ZM20.1075 6.04051C19.796 4.47025 18.9903 3.04082 17.8083 1.96122C16.6263 0.881627 15.1299 0.208485 13.5379 0.0402191C11.9459 -0.128047 10.3418 0.217389 8.9602 1.02602C7.57859 1.83465 6.49189 3.06407 5.85901 4.53451C5.14926 4.45274 4.4303 4.5167 3.74613 4.72247C3.06197 4.92823 2.427 5.27147 1.8801 5.73117C1.3332 6.19087 0.885887 6.75736 0.565538 7.39595C0.245189 8.03454 0.0585491 8.73179 0.0170454 9.44502C-0.0244584 10.1583 0.0800474 10.8725 0.324164 11.5439C0.568281 12.2153 0.946872 12.8299 1.43676 13.3499C1.92664 13.8699 2.51752 14.2845 3.1732 14.5682C3.82888 14.852 4.53557 14.9989 5.25001 15H19.5C20.6417 15.0013 21.7412 14.5686 22.5757 13.7896C23.4103 13.0106 23.9176 11.9435 23.9948 10.8044C24.0721 9.66538 23.7135 8.53956 22.9917 7.65501C22.2699 6.77046 21.2389 6.19333 20.1075 6.04051ZM12.75 1.50001C14.2259 1.4997 15.6502 2.04341 16.7505 3.02718C17.8507 4.01094 18.5498 5.36573 18.714 6.83251C18.7344 7.0168 18.8223 7.187 18.9608 7.31027C19.0993 7.43354 19.2786 7.50113 19.464 7.50001H19.5C20.2957 7.50001 21.0587 7.81608 21.6213 8.37869C22.1839 8.94129 22.5 9.70436 22.5 10.5C22.5 11.2957 22.1839 12.0587 21.6213 12.6213C21.0587 13.1839 20.2957 13.5 19.5 13.5H5.25001C4.71912 13.4997 4.19433 13.3868 3.71037 13.1685C3.22641 12.9503 2.7943 12.6318 2.44263 12.2341C2.09096 11.8364 1.82774 11.3685 1.67038 10.8615C1.51303 10.3545 1.46512 9.81981 1.52984 9.29288C1.59455 8.76594 1.77042 8.25876 2.04579 7.80487C2.32116 7.35099 2.68977 6.96074 3.12723 6.65996C3.56469 6.35917 4.06103 6.1547 4.58342 6.06006C5.1058 5.96543 5.64233 5.98279 6.15751 6.11101C6.3413 6.15685 6.53563 6.13145 6.70147 6.0399C6.8673 5.94836 6.99235 5.79746 7.05151 5.61751C7.44793 4.41927 8.21193 3.37646 9.23493 2.63728C10.2579 1.8981 11.4879 1.50015 12.75 1.50001Z"fill="green" />
</svg>
