<svg width="24" height="24" viewBox="0 0 24 24" xmlns="http://www.w3.org/2000/svg">
<path d="M20.1074 6.79051C19.7959 5.22025 18.9902 3.79082 17.8082 2.71122C16.6261 1.63163 15.1297 0.958485 13.5377 0.790219C11.9458 0.621953 10.3417 0.967389 8.96008 1.77602C7.57846 2.58465 6.49177 3.81407 5.85888 5.28451C5.14914 5.20274 4.43018 5.2667 3.74601 5.47247C3.06185 5.67823 2.42688 6.02147 1.87998 6.48117C1.33308 6.94087 0.885765 7.50736 0.565416 8.14595C0.245067 8.78454 0.0584271 9.48179 0.0169233 10.195C-0.0245805 10.9083 0.0799253 11.6225 0.324042 12.2939C0.568159 12.9653 0.94675 13.5799 1.43664 14.0999C1.92652 14.6199 2.51739 15.0345 3.17307 15.3182C3.82875 15.602 4.53545 15.7489 5.24988 15.75H19.4999C20.6415 15.7513 21.741 15.3186 22.5756 14.5396C23.4102 13.7606 23.9175 12.6935 23.9947 11.5544C24.072 10.4154 23.7134 9.28956 22.9916 8.40501C22.2698 7.52046 21.2388 6.94333 20.1074 6.79051ZM12.7499 2.25001C14.2258 2.2497 15.6501 2.79341 16.7504 3.77718C17.8506 4.76094 18.5497 6.11573 18.7139 7.58251C18.7343 7.7668 18.8222 7.937 18.9607 8.06027C19.0992 8.18354 19.2785 8.25113 19.4639 8.25001H19.4999C20.2955 8.25021 21.0585 8.56647 21.621 9.12922C22.1835 9.69197 22.4993 10.4551 22.4991 11.2508C22.4989 12.0464 22.1827 12.8094 21.6199 13.3719C21.0572 13.9343 20.294 14.2502 19.4984 14.25H5.24988C4.71899 14.2497 4.19421 14.1368 3.71025 13.9185C3.22629 13.7003 2.79418 13.3818 2.44251 12.9841C2.09083 12.5864 1.82761 12.1185 1.67026 11.6115C1.5129 11.1045 1.465 10.5698 1.52972 10.0429C1.59443 9.51594 1.77029 9.00876 2.04567 8.55487C2.32104 8.10099 2.68965 7.71074 3.12711 7.40996C3.56457 7.10917 4.06091 6.9047 4.58329 6.81006C5.10568 6.71543 5.64221 6.73279 6.15738 6.86101C6.34118 6.90685 6.53551 6.88145 6.70134 6.7899C6.86718 6.69836 6.99223 6.54746 7.05138 6.36751C7.4478 5.16927 8.21181 4.12646 9.23481 3.38728C10.2578 2.6481 11.4878 2.25015 12.7499 2.25001ZM5.62488 22.875C5.62488 23.1734 5.50636 23.4595 5.29538 23.6705C5.0844 23.8815 4.79825 24 4.49988 24C4.20152 24 3.91537 23.8815 3.70439 23.6705C3.49341 23.4595 3.37488 23.1734 3.37488 22.875C3.37488 22.5766 3.49341 22.2905 3.70439 22.0795C3.91537 21.8685 4.20152 21.75 4.49988 21.75C4.79825 21.75 5.0844 21.8685 5.29538 22.0795C5.50636 22.2905 5.62488 22.5766 5.62488 22.875ZM6.23688 17.289C6.42537 17.352 6.58115 17.4872 6.67002 17.6649C6.75889 17.8427 6.77359 18.0484 6.71088 18.237L5.96088 20.487C5.93264 20.5839 5.88514 20.674 5.82123 20.7521C5.75733 20.8301 5.67833 20.8945 5.58896 20.9413C5.4996 20.9882 5.40171 21.0165 5.30115 21.0246C5.20059 21.0327 5.09942 21.0204 5.00371 20.9885C4.908 20.9566 4.81971 20.9057 4.74413 20.8389C4.66854 20.7721 4.60722 20.6907 4.56382 20.5996C4.52042 20.5086 4.49585 20.4097 4.49156 20.3089C4.48728 20.2081 4.50337 20.1074 4.53888 20.013L5.28888 17.763C5.35186 17.5745 5.48707 17.4187 5.66482 17.3299C5.84256 17.241 6.04831 17.2263 6.23688 17.289ZM11.6249 22.875C11.6249 23.1734 11.5064 23.4595 11.2954 23.6705C11.0844 23.8815 10.7983 24 10.4999 24C10.2015 24 9.91537 23.8815 9.70439 23.6705C9.49341 23.4595 9.37488 23.1734 9.37488 22.875C9.37488 22.5766 9.49341 22.2905 9.70439 22.0795C9.91537 21.8685 10.2015 21.75 10.4999 21.75C10.7983 21.75 11.0844 21.8685 11.2954 22.0795C11.5064 22.2905 11.6249 22.5766 11.6249 22.875ZM12.2369 17.289C12.4254 17.352 12.5811 17.4872 12.67 17.6649C12.7589 17.8427 12.7736 18.0484 12.7109 18.237L11.9609 20.487C11.9326 20.5839 11.8851 20.674 11.8212 20.7521C11.7573 20.8301 11.6783 20.8945 11.589 20.9413C11.4996 20.9882 11.4017 21.0165 11.3011 21.0246C11.2006 21.0327 11.0994 21.0204 11.0037 20.9885C10.908 20.9566 10.8197 20.9057 10.7441 20.8389C10.6685 20.7721 10.6072 20.6907 10.5638 20.5996C10.5204 20.5086 10.4958 20.4097 10.4916 20.3089C10.4873 20.2081 10.5034 20.1074 10.5389 20.013L11.2889 17.763C11.3519 17.5745 11.4871 17.4187 11.6648 17.3299C11.8426 17.241 12.0483 17.2263 12.2369 17.289ZM17.6249 22.875C17.6249 23.1734 17.5064 23.4595 17.2954 23.6705C17.0844 23.8815 16.7983 24 16.4999 24C16.2015 24 15.9154 23.8815 15.7044 23.6705C15.4934 23.4595 15.3749 23.1734 15.3749 22.875C15.3749 22.5766 15.4934 22.2905 15.7044 22.0795C15.9154 21.8685 16.2015 21.75 16.4999 21.75C16.7983 21.75 17.0844 21.8685 17.2954 22.0795C17.5064 22.2905 17.6249 22.5766 17.6249 22.875ZM18.2369 17.289C18.4254 17.352 18.5811 17.4872 18.67 17.6649C18.7589 17.8427 18.7736 18.0484 18.7109 18.237L17.9609 20.487C17.9326 20.5839 17.8851 20.674 17.8212 20.7521C17.7573 20.8301 17.6783 20.8945 17.589 20.9413C17.4996 20.9882 17.4017 21.0165 17.3011 21.0246C17.2006 21.0327 17.0994 21.0204 17.0037 20.9885C16.908 20.9566 16.8197 20.9057 16.7441 20.8389C16.6685 20.7721 16.6072 20.6907 16.5638 20.5996C16.5204 20.5086 16.4958 20.4097 16.4916 20.3089C16.4873 20.2081 16.5034 20.1074 16.5389 20.013L17.2889 17.763C17.3519 17.5745 17.4871 17.4187 17.6648 17.3299C17.8426 17.241 18.0483 17.2263 18.2369 17.289Z" fill="black" />
</svg>
