<svg width="24" height="24" viewBox="0 0 24 24" xmlns="http://www.w3.org/2000/svg">
<path d="M3.98688 16.539C4.17537 16.602 4.33115 16.7372 4.42002 16.9149C4.50889 17.0927 4.52359 17.2984 4.46088 17.487L3.71088 19.737C3.68264 19.8339 3.63514 19.924 3.57123 20.0021C3.50733 20.0801 3.42833 20.1445 3.33896 20.1913C3.2496 20.2382 3.15171 20.2665 3.05115 20.2746C2.95059 20.2827 2.84942 20.2704 2.75371 20.2385C2.658 20.2066 2.56971 20.1557 2.49413 20.0889C2.41854 20.0221 2.35722 19.9407 2.31382 19.8496C2.27042 19.7585 2.24585 19.6597 2.24156 19.5589C2.23728 19.4581 2.25337 19.3574 2.28888 19.263L3.03888 17.013C3.10186 16.8245 3.23707 16.6687 3.41482 16.5799C3.59256 16.491 3.79831 16.4763 3.98688 16.539ZM18.2369 16.539C18.4254 16.602 18.5811 16.7372 18.67 16.9149C18.7589 17.0927 18.7736 17.2984 18.7109 17.487L17.9609 19.737C17.8926 19.9186 17.7566 20.0666 17.5815 20.1501C17.4064 20.2335 17.2057 20.2459 17.0217 20.1845C16.8377 20.1232 16.6846 19.9929 16.5945 19.8211C16.5045 19.6493 16.4846 19.4492 16.5389 19.263L17.2889 17.013C17.3519 16.8245 17.4871 16.6687 17.6648 16.5799C17.8426 16.491 18.0483 16.4763 18.2369 16.539ZM6.98688 18.789C7.17537 18.852 7.33115 18.9872 7.42002 19.1649C7.50889 19.3427 7.52359 19.5484 7.46088 19.737L6.71088 21.987C6.68264 22.0839 6.63514 22.174 6.57123 22.2521C6.50733 22.3301 6.42833 22.3945 6.33896 22.4413C6.2496 22.4882 6.15171 22.5165 6.05115 22.5246C5.95059 22.5327 5.84942 22.5204 5.75371 22.4885C5.658 22.4566 5.56971 22.4057 5.49413 22.3389C5.41854 22.2721 5.35722 22.1907 5.31382 22.0996C5.27042 22.0085 5.24585 21.9097 5.24156 21.8089C5.23728 21.7081 5.25337 21.6074 5.28888 21.513L6.03888 19.263C6.10186 19.0745 6.23707 18.9187 6.41482 18.8299C6.59256 18.741 6.79831 18.7263 6.98688 18.789ZM21.2369 18.789C21.4254 18.852 21.5811 18.9872 21.67 19.1649C21.7589 19.3427 21.7736 19.5484 21.7109 19.737L20.9609 21.987C20.8926 22.1686 20.7566 22.3166 20.5815 22.4001C20.4064 22.4835 20.2057 22.4959 20.0217 22.4345C19.8377 22.3732 19.6846 22.2429 19.5945 22.0711C19.5045 21.8993 19.4846 21.6992 19.5389 21.513L20.2889 19.263C20.3519 19.0745 20.4871 18.9187 20.6648 18.8299C20.8426 18.741 21.0483 18.7263 21.2369 18.789ZM10.5794 16.914C10.6417 16.7896 10.7375 16.685 10.8559 16.6118C10.9743 16.5387 11.1107 16.5 11.2499 16.5H12.7499C12.8687 16.5001 12.9857 16.5284 13.0914 16.5826C13.1971 16.6367 13.2884 16.7153 13.3579 16.8116C13.4273 16.908 13.4728 17.0195 13.4907 17.1369C13.5086 17.2543 13.4984 17.3743 13.4609 17.487L13.0409 18.75H14.2499C14.391 18.7502 14.5292 18.7902 14.6486 18.8655C14.768 18.9407 14.8638 19.0481 14.9249 19.1753C14.986 19.3025 15.0099 19.4444 14.994 19.5846C14.9781 19.7248 14.9229 19.8577 14.8349 19.968L11.8349 23.718C11.7278 23.851 11.5787 23.9434 11.4119 23.9802C11.2452 24.0169 11.071 23.9956 10.918 23.9199C10.765 23.8442 10.6424 23.7186 10.5705 23.5638C10.4986 23.409 10.4816 23.2343 10.5224 23.0685L11.0399 21H9.74988C9.62199 21 9.49622 20.9673 9.38453 20.905C9.27283 20.8427 9.17893 20.7528 9.11174 20.644C9.04455 20.5352 9.00631 20.411 9.00064 20.2832C8.99498 20.1554 9.02209 20.0283 9.07938 19.914L10.5794 16.914ZM20.1074 6.04051C19.7959 4.47025 18.9902 3.04082 17.8082 1.96122C16.6261 0.881627 15.1297 0.208485 13.5377 0.0402191C11.9458 -0.128047 10.3417 0.217389 8.96008 1.02602C7.57846 1.83465 6.49177 3.06407 5.85888 4.53451C5.14914 4.45274 4.43018 4.5167 3.74601 4.72247C3.06185 4.92823 2.42688 5.27147 1.87998 5.73117C1.33308 6.19087 0.885765 6.75736 0.565416 7.39595C0.245067 8.03454 0.0584271 8.73179 0.0169233 9.44502C-0.0245805 10.1583 0.0799253 10.8725 0.324042 11.5439C0.568159 12.2153 0.94675 12.8299 1.43664 13.3499C1.92652 13.8699 2.51739 14.2845 3.17307 14.5682C3.82875 14.852 4.53545 14.9989 5.24988 15H19.4999C20.6415 15.0013 21.741 14.5686 22.5756 13.7896C23.4102 13.0106 23.9175 11.9435 23.9947 10.8044C24.072 9.66538 23.7134 8.53956 22.9916 7.65501C22.2698 6.77046 21.2388 6.19333 20.1074 6.04051Z" fill="black" />
</svg>
