<svg width="24" height="24" viewBox="0 0 24 24" xmlns="http://www.w3.org/2000/svg">
<path d="M3.56251 20.25C3.66196 20.25 3.75734 20.2895 3.82767 20.3598C3.898 20.4302 3.93751 20.5256 3.93751 20.625V21.48L4.68901 21.0495C4.77515 21.003 4.87609 20.9919 4.97024 21.0188C5.0644 21.0457 5.14431 21.1083 5.19289 21.1934C5.24147 21.2784 5.25487 21.379 5.23023 21.4738C5.20559 21.5686 5.14485 21.6499 5.06101 21.7005L4.31851 22.125L5.06101 22.5495C5.10499 22.5733 5.14377 22.6056 5.17508 22.6446C5.20638 22.6836 5.22958 22.7284 5.2433 22.7765C5.25703 22.8245 5.261 22.8749 5.25499 22.9245C5.24898 22.9741 5.23311 23.0221 5.2083 23.0655C5.1835 23.1089 5.15027 23.1469 5.11056 23.1772C5.07085 23.2076 5.02548 23.2298 4.97709 23.2423C4.92871 23.2549 4.8783 23.2577 4.82882 23.2505C4.77935 23.2433 4.73181 23.2263 4.68901 23.2005L3.93751 22.7715V23.625C3.93751 23.7245 3.898 23.8198 3.82767 23.8902C3.75734 23.9605 3.66196 24 3.56251 24C3.46305 24 3.36767 23.9605 3.29734 23.8902C3.22702 23.8198 3.18751 23.7245 3.18751 23.625V22.77L2.43601 23.2005C2.3932 23.2263 2.34566 23.2433 2.29619 23.2505C2.24671 23.2577 2.1963 23.2549 2.14792 23.2423C2.09954 23.2298 2.05416 23.2076 2.01445 23.1772C1.97475 23.1469 1.94151 23.1089 1.91671 23.0655C1.89191 23.0221 1.87603 22.9741 1.87002 22.9245C1.86401 22.8749 1.86798 22.8245 1.88171 22.7765C1.89543 22.7284 1.91863 22.6836 1.94994 22.6446C1.98124 22.6056 2.02003 22.5733 2.06401 22.5495L2.80651 22.125L2.06401 21.7005C2.02003 21.6767 1.98124 21.6444 1.94994 21.6054C1.91863 21.5665 1.89543 21.5216 1.88171 21.4735C1.86798 21.4255 1.86401 21.3751 1.87002 21.3255C1.87603 21.2759 1.89191 21.228 1.91671 21.1846C1.94151 21.1411 1.97475 21.1031 2.01445 21.0728C2.05416 21.0424 2.09954 21.0203 2.14792 21.0077C2.1963 20.9951 2.24671 20.9923 2.29619 20.9995C2.34566 21.0067 2.3932 21.0237 2.43601 21.0495L3.18751 21.4785V20.625C3.18751 20.5256 3.22702 20.4302 3.29734 20.3598C3.36767 20.2895 3.46305 20.25 3.56251 20.25ZM6.33601 16.5795C6.51344 16.6686 6.64829 16.8245 6.71099 17.0129C6.7737 17.2013 6.75914 17.4068 6.67051 17.5845L5.92051 19.0845C5.828 19.2561 5.67235 19.3848 5.48652 19.4436C5.30069 19.5024 5.09928 19.4865 4.92496 19.3993C4.75064 19.3122 4.61709 19.1606 4.55261 18.9767C4.48813 18.7927 4.49777 18.5909 4.57951 18.414L5.32951 16.914C5.41863 16.7366 5.57447 16.6017 5.76286 16.539C5.95126 16.4763 6.15683 16.4909 6.33451 16.5795H6.33601ZM9.56251 20.25C9.66196 20.25 9.75735 20.2895 9.82767 20.3598C9.898 20.4302 9.93751 20.5256 9.93751 20.625V21.48L10.6875 21.0495C10.7738 21 10.8763 20.9868 10.9724 21.0128C11.0684 21.0388 11.1502 21.1019 11.1998 21.1883C11.2493 21.2746 11.2625 21.3771 11.2365 21.4731C11.2105 21.5692 11.1473 21.651 11.061 21.7005L10.3185 22.125L11.061 22.5495C11.105 22.5733 11.1438 22.6056 11.1751 22.6446C11.2064 22.6836 11.2296 22.7284 11.2433 22.7765C11.257 22.8245 11.261 22.8749 11.255 22.9245C11.249 22.9741 11.2331 23.0221 11.2083 23.0655C11.1835 23.1089 11.1503 23.1469 11.1106 23.1772C11.0709 23.2076 11.0255 23.2298 10.9771 23.2423C10.9287 23.2549 10.8783 23.2577 10.8288 23.2505C10.7794 23.2433 10.7318 23.2263 10.689 23.2005L9.93751 22.7715V23.625C9.93751 23.7245 9.898 23.8198 9.82767 23.8902C9.75735 23.9605 9.66196 24 9.56251 24C9.46305 24 9.36767 23.9605 9.29734 23.8902C9.22701 23.8198 9.18751 23.7245 9.18751 23.625V22.77L8.43601 23.2005C8.3932 23.2263 8.34566 23.2433 8.29619 23.2505C8.24671 23.2577 8.1963 23.2549 8.14792 23.2423C8.09954 23.2298 8.05416 23.2076 8.01445 23.1772C7.97475 23.1469 7.94151 23.1089 7.91671 23.0655C7.89191 23.0221 7.87603 22.9741 7.87002 22.9245C7.86401 22.8749 7.86798 22.8245 7.88171 22.7765C7.89543 22.7284 7.91863 22.6836 7.94993 22.6446C7.98124 22.6056 8.02003 22.5733 8.06401 22.5495L8.80651 22.125L8.06401 21.7005C8.02003 21.6767 7.98124 21.6444 7.94993 21.6054C7.91863 21.5665 7.89543 21.5216 7.88171 21.4735C7.86798 21.4255 7.86401 21.3751 7.87002 21.3255C7.87603 21.2759 7.89191 21.228 7.91671 21.1846C7.94151 21.1411 7.97475 21.1031 8.01445 21.0728C8.05416 21.0424 8.09954 21.0203 8.14792 21.0077C8.1963 20.9951 8.24671 20.9923 8.29619 20.9995C8.34566 21.0067 8.3932 21.0237 8.43601 21.0495L9.18751 21.4785V20.625C9.18751 20.5256 9.22701 20.4302 9.29734 20.3598C9.36767 20.2895 9.46305 20.25 9.56251 20.25ZM12.336 16.5795C12.5134 16.6686 12.6483 16.8245 12.711 17.0129C12.7737 17.2013 12.7591 17.4068 12.6705 17.5845L11.9205 19.0845C11.828 19.2561 11.6723 19.3848 11.4865 19.4436C11.3007 19.5024 11.0993 19.4865 10.925 19.3993C10.7506 19.3122 10.6171 19.1606 10.5526 18.9767C10.4881 18.7927 10.4978 18.5909 10.5795 18.414L11.3295 16.914C11.4186 16.7366 11.5745 16.6017 11.7629 16.539C11.9513 16.4763 12.1568 16.4909 12.3345 16.5795H12.336ZM15.5625 20.25C15.662 20.25 15.7573 20.2895 15.8277 20.3598C15.898 20.4302 15.9375 20.5256 15.9375 20.625V21.48L16.6875 21.0495C16.7303 21.025 16.7774 21.0091 16.8263 21.0028C16.8752 20.9965 16.9248 20.9999 16.9724 21.0128C17.0199 21.0257 17.0645 21.0478 17.1035 21.0779C17.1425 21.108 17.1752 21.1455 17.1998 21.1883C17.2243 21.231 17.2401 21.2782 17.2464 21.327C17.2527 21.3759 17.2494 21.4256 17.2365 21.4731C17.2236 21.5207 17.2015 21.5652 17.1714 21.6043C17.1412 21.6433 17.1038 21.676 17.061 21.7005L16.3185 22.125L17.061 22.5495C17.105 22.5733 17.1438 22.6056 17.1751 22.6446C17.2064 22.6836 17.2296 22.7284 17.2433 22.7765C17.257 22.8245 17.261 22.8749 17.255 22.9245C17.249 22.9741 17.2331 23.0221 17.2083 23.0655C17.1835 23.1089 17.1503 23.1469 17.1106 23.1772C17.0709 23.2076 17.0255 23.2298 16.9771 23.2423C16.9287 23.2549 16.8783 23.2577 16.8288 23.2505C16.7794 23.2433 16.7318 23.2263 16.689 23.2005L15.9375 22.7715V23.625C15.9375 23.7245 15.898 23.8198 15.8277 23.8902C15.7573 23.9605 15.662 24 15.5625 24C15.463 24 15.3677 23.9605 15.2973 23.8902C15.227 23.8198 15.1875 23.7245 15.1875 23.625V22.77L14.436 23.2005C14.3932 23.2263 14.3457 23.2433 14.2962 23.2505C14.2467 23.2577 14.1963 23.2549 14.1479 23.2423C14.0995 23.2298 14.0542 23.2076 14.0145 23.1772C13.9747 23.1469 13.9415 23.1089 13.9167 23.0655C13.8919 23.0221 13.876 22.9741 13.87 22.9245C13.864 22.8749 13.868 22.8245 13.8817 22.7765C13.8954 22.7284 13.9186 22.6836 13.9499 22.6446C13.9812 22.6056 14.02 22.5733 14.064 22.5495L14.8065 22.125L14.064 21.7005C14.02 21.6767 13.9812 21.6444 13.9499 21.6054C13.9186 21.5665 13.8954 21.5216 13.8817 21.4735C13.868 21.4255 13.864 21.3751 13.87 21.3255C13.876 21.2759 13.8919 21.228 13.9167 21.1846C13.9415 21.1411 13.9747 21.1031 14.0145 21.0728C14.0542 21.0424 14.0995 21.0203 14.1479 21.0077C14.1963 20.9951 14.2467 20.9923 14.2962 20.9995C14.3457 21.0067 14.3932 21.0237 14.436 21.0495L15.1875 21.4785V20.625C15.1875 20.5256 15.227 20.4302 15.2973 20.3598C15.3677 20.2895 15.463 20.25 15.5625 20.25ZM18.336 16.5795C18.5134 16.6686 18.6483 16.8245 18.711 17.0129C18.7737 17.2013 18.7591 17.4068 18.6705 17.5845L17.9205 19.0845C17.8784 19.1757 17.8184 19.2575 17.744 19.325C17.6697 19.3926 17.5826 19.4445 17.4878 19.4777C17.393 19.511 17.2925 19.5248 17.1923 19.5185C17.092 19.5121 16.9941 19.4857 16.9042 19.4408C16.8144 19.3959 16.7345 19.3334 16.6693 19.257C16.604 19.1806 16.5548 19.0919 16.5245 18.9961C16.4943 18.9004 16.4835 18.7995 16.493 18.6995C16.5024 18.5995 16.5318 18.5024 16.5795 18.414L17.3295 16.914C17.4186 16.7366 17.5745 16.6017 17.7629 16.539C17.9513 16.4763 18.1568 16.4909 18.3345 16.5795H18.336ZM20.1075 6.04051C19.796 4.47025 18.9903 3.04082 17.8083 1.96122C16.6263 0.881627 15.1299 0.208485 13.5379 0.0402191C11.9459 -0.128047 10.3418 0.217389 8.9602 1.02602C7.57859 1.83465 6.49189 3.06407 5.85901 4.53451C5.14926 4.45274 4.4303 4.5167 3.74613 4.72247C3.06197 4.92823 2.427 5.27147 1.8801 5.73117C1.3332 6.19087 0.885887 6.75736 0.565538 7.39595C0.245189 8.03454 0.0585491 8.73179 0.0170454 9.44502C-0.0244584 10.1583 0.0800474 10.8725 0.324164 11.5439C0.568281 12.2153 0.946872 12.8299 1.43676 13.3499C1.92664 13.8699 2.51752 14.2845 3.1732 14.5682C3.82888 14.852 4.53557 14.9989 5.25001 15H19.5C20.6417 15.0013 21.7412 14.5686 22.5757 13.7896C23.4103 13.0106 23.9176 11.9435 23.9948 10.8044C24.0721 9.66538 23.7135 8.53956 22.9917 7.65501C22.2699 6.77046 21.2389 6.19333 20.1075 6.04051Z"fill="green" />
</svg>
