<svg width="24" height="24" viewBox="0 0 24 24" xmlns="http://www.w3.org/2000/svg">
<path d="M17.2095 13.5C17.0407 11.9792 16.3603 10.5609 15.2797 9.47756C14.1991 8.39423 12.7825 7.71018 11.2621 7.53757C9.74176 7.36496 8.20786 7.71403 6.91191 8.52755C5.61597 9.34107 4.63487 10.5708 4.12948 12.015C2.97139 12.1098 1.89486 12.6489 1.12523 13.5194C0.355598 14.3899 -0.0474667 15.5244 0.000406552 16.6854C0.0482798 17.8464 0.54338 18.9438 1.38207 19.7481C2.22076 20.5523 3.33802 21.0009 4.49998 21H17.25C18.2445 20.9946 19.1962 20.5944 19.8957 19.8873C20.5952 19.1803 20.9851 18.2243 20.9797 17.2298C20.9744 16.2352 20.5741 15.2835 19.8671 14.584C19.16 13.8846 18.204 13.4946 17.2095 13.5Z" fill="black" />
<path d="M21.8159 14.658C21.4609 14.0332 20.9816 13.4877 20.4075 13.0553C19.8335 12.6229 19.177 12.3128 18.4784 12.144C17.9458 10.1275 16.6693 8.38737 14.9059 7.27368C13.1424 6.15999 11.0226 5.7553 8.9729 6.141C9.54813 5.08172 10.4289 4.22014 11.5007 3.66843C12.5724 3.11671 13.7854 2.90042 14.9817 3.0477C16.1781 3.19498 17.3024 3.69901 18.2083 4.49418C19.1142 5.28935 19.7598 6.33883 20.0609 7.506C20.9317 7.46154 21.7908 7.72193 22.4904 8.24237C23.19 8.76281 23.6863 9.51078 23.8941 10.3576C24.1019 11.2044 24.008 12.0972 23.6287 12.8823C23.2494 13.6675 22.6084 14.2959 21.8159 14.6595V14.658Z" fill="black" />
</svg>
