<svg width="24" height="24" viewBox="0 0 24 24" xmlns="http://www.w3.org/2000/svg">
<path d="M12.75 4.49999C11.4876 4.49982 10.2573 4.89762 9.23403 5.63682C8.21073 6.37603 7.4465 7.41901 7.05 8.61749C7.02205 8.71442 6.97483 8.80472 6.91117 8.88297C6.84751 8.96123 6.76871 9.02583 6.6795 9.07293C6.59029 9.12002 6.4925 9.14864 6.39197 9.15706C6.29144 9.16548 6.19025 9.15353 6.09445 9.12194C5.99865 9.09034 5.9102 9.03974 5.83441 8.97316C5.75862 8.90659 5.69704 8.82541 5.65335 8.73448C5.60966 8.64355 5.58476 8.54475 5.58015 8.44397C5.57554 8.3432 5.5913 8.24253 5.6265 8.14799C6.14716 6.5757 7.17343 5.21986 8.54531 4.29188C9.91718 3.3639 11.5576 2.91593 13.2107 3.01782C14.8638 3.1197 16.4368 3.76572 17.6843 4.85514C18.9319 5.94456 19.7839 7.41616 20.1075 9.04049C21.2389 9.19331 22.2699 9.77045 22.9917 10.655C23.7135 11.5395 24.0721 12.6654 23.9948 13.8044C23.9176 14.9435 23.4103 16.0106 22.5757 16.7896C21.7411 17.5686 20.6417 18.0013 19.5 18H6.75C6.55109 18 6.36032 17.921 6.21967 17.7803C6.07902 17.6397 6 17.4489 6 17.25C6 17.0511 6.07902 16.8603 6.21967 16.7197C6.36032 16.579 6.55109 16.5 6.75 16.5H19.5C20.2956 16.5002 21.0588 16.1843 21.6215 15.6218C22.1843 15.0594 22.5006 14.2964 22.5007 13.5007C22.5009 12.7051 22.1851 11.942 21.6226 11.3792C21.0601 10.8165 20.2971 10.5002 19.5015 10.5H19.4625C19.2771 10.5011 19.0978 10.4335 18.9593 10.3103C18.8208 10.187 18.7329 10.0168 18.7125 9.83249C18.5483 8.36598 17.8495 7.01139 16.7495 6.02766C15.6496 5.04393 14.2257 4.50005 12.75 4.49999ZM0 11.25C0 11.0511 0.0790176 10.8603 0.21967 10.7197C0.360322 10.579 0.551088 10.5 0.75 10.5H8.25C8.44891 10.5 8.63968 10.579 8.78033 10.7197C8.92098 10.8603 9 11.0511 9 11.25C9 11.4489 8.92098 11.6397 8.78033 11.7803C8.63968 11.921 8.44891 12 8.25 12H0.75C0.551088 12 0.360322 11.921 0.21967 11.7803C0.0790176 11.6397 0 11.4489 0 11.25ZM3 14.25C3 14.0511 3.07902 13.8603 3.21967 13.7197C3.36032 13.579 3.55109 13.5 3.75 13.5H17.25C17.4489 13.5 17.6397 13.579 17.7803 13.7197C17.921 13.8603 18 14.0511 18 14.25C18 14.4489 17.921 14.6397 17.7803 14.7803C17.6397 14.921 17.4489 15 17.25 15H3.75C3.55109 15 3.36032 14.921 3.21967 14.7803C3.07902 14.6397 3 14.4489 3 14.25ZM0 20.25C0 20.0511 0.0790176 19.8603 0.21967 19.7197C0.360322 19.579 0.551088 19.5 0.75 19.5H14.25C14.4489 19.5 14.6397 19.579 14.7803 19.7197C14.921 19.8603 15 20.0511 15 20.25C15 20.4489 14.921 20.6397 14.7803 20.7803C14.6397 20.921 14.4489 21 14.25 21H0.75C0.551088 21 0.360322 20.921 0.21967 20.7803C0.0790176 20.6397 0 20.4489 0 20.25Z"fill="green" />
</svg>
