<svg width="24" height="24" viewBox="0 0 24 24" xmlns="http://www.w3.org/2000/svg">
<path d="M17.2095 16.5C17.0407 14.9792 16.3603 13.5609 15.2797 12.4776C14.1991 11.3942 12.7825 10.7102 11.2621 10.5376C9.74176 10.365 8.20786 10.714 6.91191 11.5275C5.61597 12.3411 4.63487 13.5708 4.12948 15.015C2.97139 15.1098 1.89486 15.6489 1.12523 16.5194C0.355598 17.3899 -0.0474667 18.5244 0.000406552 19.6854C0.0482799 20.8464 0.54338 21.9438 1.38207 22.7481C2.22076 23.5523 3.33802 24.0009 4.49998 24H17.25C18.2445 24 19.1984 23.6049 19.9016 22.9017C20.6049 22.1984 21 21.2446 21 20.25C21 19.2555 20.6049 18.3016 19.9016 17.5984C19.1984 16.8951 18.2445 16.5 17.25 16.5H17.2095Z"fill="green" />
<path d="M16.9289 2.66701C17.0151 2.538 17.0592 2.38542 17.0551 2.2303C17.0509 2.07519 16.9988 1.92518 16.9058 1.80094C16.8128 1.67671 16.6836 1.58437 16.536 1.53665C16.3883 1.48893 16.2295 1.48818 16.0814 1.53451C14.5283 2.0209 13.1974 3.04117 12.3244 4.41468C11.4514 5.78819 11.0925 7.42632 11.3114 9.03901C11.8479 9.09118 12.378 9.19619 12.8939 9.35251C12.6623 8.36536 12.713 7.33297 13.0404 6.3733C13.3677 5.41362 13.9584 4.56539 14.7449 3.92551C14.4851 4.92724 14.4543 5.97463 14.6549 6.98989C14.8554 8.00515 15.282 8.9622 15.9031 9.78996C16.5242 10.6177 17.3238 11.2949 18.2425 11.7713C19.1613 12.2476 20.1755 12.5109 21.2099 12.5415C20.2269 13.2247 19.0436 13.5595 17.8484 13.4925C18.0914 13.968 18.2909 14.4705 18.4394 14.9925C19.5224 14.9464 20.5792 14.6452 21.5239 14.1135C22.4685 13.5817 23.2742 12.8345 23.8754 11.9325C23.9616 11.8035 24.0057 11.6509 24.0016 11.4958C23.9974 11.3407 23.9453 11.1907 23.8523 11.0664C23.7593 10.9422 23.6301 10.8499 23.4825 10.8021C23.3348 10.7544 23.176 10.7537 23.0279 10.8C21.964 11.134 20.8226 11.1297 19.7612 10.7877C18.6998 10.4458 17.7706 9.78302 17.1017 8.89081C16.4328 7.99859 16.0571 6.92085 16.0264 5.80615C15.9957 4.69144 16.3116 3.59467 16.9304 2.66701H16.9289Z"fill="green" />
</svg>
