<svg width="24" height="24" viewBox="0 0 24 24" xmlns="http://www.w3.org/2000/svg">
<path d="M4.50001 20.25C4.50001 20.0511 4.57902 19.8603 4.71968 19.7197C4.86033 19.579 5.05109 19.5 5.25001 19.5H18.75C18.9489 19.5 19.1397 19.579 19.2803 19.7197C19.421 19.8603 19.5 20.0511 19.5 20.25C19.5 20.4489 19.421 20.6397 19.2803 20.7803C19.1397 20.921 18.9489 21 18.75 21H5.25001C5.05109 21 4.86033 20.921 4.71968 20.7803C4.57902 20.6397 4.50001 20.4489 4.50001 20.25ZM4.50001 23.25C4.50001 23.0511 4.57902 22.8603 4.71968 22.7197C4.86033 22.579 5.05109 22.5 5.25001 22.5H18.75C18.9489 22.5 19.1397 22.579 19.2803 22.7197C19.421 22.8603 19.5 23.0511 19.5 23.25C19.5 23.4489 19.421 23.6397 19.2803 23.7803C19.1397 23.921 18.9489 24 18.75 24H5.25001C5.05109 24 4.86033 23.921 4.71968 23.7803C4.57902 23.6397 4.50001 23.4489 4.50001 23.25ZM20.1075 9.04051C19.796 7.47025 18.9903 6.04082 17.8083 4.96122C16.6263 3.88163 15.1299 3.20848 13.5379 3.04022C11.9459 2.87195 10.3418 3.21739 8.9602 4.02602C7.57859 4.83465 6.49189 6.06406 5.85901 7.53451C5.14926 7.45274 4.4303 7.5167 3.74613 7.72247C3.06197 7.92823 2.427 8.27147 1.8801 8.73117C1.3332 9.19087 0.885887 9.75736 0.565538 10.3959C0.245189 11.0345 0.0585491 11.7318 0.0170454 12.445C-0.0244584 13.1583 0.0800474 13.8725 0.324164 14.5439C0.568281 15.2153 0.946872 15.8299 1.43676 16.3499C1.92664 16.8699 2.51752 17.2845 3.1732 17.5682C3.82888 17.852 4.53557 17.9989 5.25001 18H19.5C20.6417 18.0013 21.7412 17.5686 22.5757 16.7896C23.4103 16.0106 23.9176 14.9435 23.9948 13.8044C24.0721 12.6654 23.7135 11.5396 22.9917 10.655C22.2699 9.77046 21.2389 9.19333 20.1075 9.04051Z" fill="black" />
</svg>
