<svg width="24" height="24" viewBox="0 0 24 24" xmlns="http://www.w3.org/2000/svg">
<path d="M12.354 5.64601L17.354 10.646C17.4479 10.7399 17.5007 10.8672 17.5007 11C17.5007 11.1328 17.4479 11.2601 17.354 11.354C17.2601 11.4479 17.1328 11.5006 17 11.5006C16.8672 11.5006 16.7399 11.4479 16.646 11.354L12.5 7.20701V18C12.5 18.1326 12.4473 18.2598 12.3536 18.3536C12.2598 18.4473 12.1326 18.5 12 18.5C11.8674 18.5 11.7402 18.4473 11.6465 18.3536C11.5527 18.2598 11.5 18.1326 11.5 18V7.20701L7.35402 11.354C7.26013 11.4479 7.1328 11.5006 7.00002 11.5006C6.86725 11.5006 6.73991 11.4479 6.64602 11.354C6.55213 11.2601 6.49939 11.1328 6.49939 11C6.49939 10.8672 6.55213 10.7399 6.64602 10.646L11.646 5.64601C11.6925 5.59945 11.7476 5.5625 11.8084 5.5373C11.8691 5.51209 11.9343 5.49911 12 5.49911C12.0658 5.49911 12.1309 5.51209 12.1917 5.5373C12.2524 5.5625 12.3076 5.59945 12.354 5.64601Z" fill="black" />
</svg>
