<svg width="24" height="24" viewBox="0 0 24 24" xmlns="http://www.w3.org/2000/svg">
<path d="M12 5.5C12.1326 5.5 12.2598 5.55268 12.3536 5.64645C12.4473 5.74021 12.5 5.86739 12.5 6V16.793L16.646 12.646C16.7399 12.5521 16.8672 12.4994 17 12.4994C17.1328 12.4994 17.2601 12.5521 17.354 12.646C17.4479 12.7399 17.5007 12.8672 17.5007 13C17.5007 13.1328 17.4479 13.2601 17.354 13.354L12.354 18.354C12.3076 18.4006 12.2524 18.4375 12.1917 18.4627C12.1309 18.4879 12.0658 18.5009 12 18.5009C11.9343 18.5009 11.8691 18.4879 11.8084 18.4627C11.7476 18.4375 11.6925 18.4006 11.646 18.354L6.64602 13.354C6.55213 13.2601 6.49939 13.1328 6.49939 13C6.49939 12.8672 6.55213 12.7399 6.64602 12.646C6.73991 12.5521 6.86725 12.4994 7.00002 12.4994C7.1328 12.4994 7.26013 12.5521 7.35402 12.646L11.5 16.793V6C11.5 5.86739 11.5527 5.74021 11.6465 5.64645C11.7402 5.55268 11.8674 5.5 12 5.5Z"fill="green" />
</svg>
